<svg xmlns="http://www.w3.org/2000/svg" xmlns:xlink="http://www.w3.org/1999/xlink" viewBox="0,0,256,256" width="50px" height="50px" fill-rule="nonzero"><g fill="#161616" fill-rule="nonzero" stroke="none" stroke-width="1" stroke-linecap="butt" stroke-linejoin="miter" stroke-miterlimit="10" stroke-dasharray="" stroke-dashoffset="0" font-family="none" font-weight="none" font-size="none" text-anchor="none" style="mix-blend-mode: normal"><g transform="scale(8.53333,8.53333)"><path d="M6,4c-1.105,0 -2,0.895 -2,2v18c0,1.105 0.895,2 2,2h18c1.105,0 2,-0.895 2,-2v-18c0,-1.105 -0.895,-2 -2,-2zM10.41406,10.12695h1.98242l3.50586,9.86523h-1.89258l-0.83399,-2.52344h-3.63086l-0.84766,2.52344h-1.7832zM11.30859,12.00781l-1.35352,4.06641h2.81055l-1.33984,-4.06641zM20.1543,12.36328c2.133,0 3.41211,1.41444 3.41211,3.77344v0.54688h-5.22266v0.08789c0.041,1.244 0.75805,2.02344 1.87305,2.02344c0.84,0 1.42197,-0.30733 1.66797,-0.86133h1.60547c-0.32,1.361 -1.55926,2.20898 -3.32227,2.20898c-2.201,0 -3.52734,-1.45728 -3.52734,-3.86328c0,-2.406 1.34767,-3.91602 3.51367,-3.91602zM20.14844,13.70703c-1.012,0 -1.72283,0.72536 -1.79883,1.81836h3.52148c-0.035,-1.107 -0.70566,-1.81836 -1.72266,-1.81836z"></path></g></g></svg>